<svg xmlns="http://www.w3.org/2000/svg" viewBox="0 0 920 560" width="920" height="560" font-family="Segoe UI, Arial, sans-serif" role="img" aria-label="Vista previa de la planilla de cuenta corriente por marca">
  <defs>
    <linearGradient id="agbar" x1="0" y1="1" x2="0" y2="0">
      <stop offset="0" stop-color="#217346"/><stop offset="1" stop-color="#33a867"/>
    </linearGradient>
  </defs>
  <rect width="920" height="560" rx="10" fill="#eef2ee"/>
  <!-- barra de ventana Excel -->
  <rect width="920" height="38" rx="10" fill="#185c38"/>
  <rect y="20" width="920" height="18" fill="#185c38"/>
  <circle cx="20" cy="19" r="5" fill="#ff5f56"/><circle cx="38" cy="19" r="5" fill="#ffbd2e"/><circle cx="56" cy="19" r="5" fill="#27c93f"/>
  <text x="90" y="24" fill="#cdeBD9" font-size="12">CORVEX — Cuenta Corriente.xlsm  ·  Excel</text>
  <rect x="0" y="38" width="920" height="22" fill="#217346"/>
  <g fill="#dff0e6" font-size="11"><text x="16" y="53">Archivo</text><text x="74" y="53">Inicio</text><text x="126" y="53">Insertar</text><text x="196" y="53">Datos</text></g>

  <!-- pestañas de hoja -->
  <g font-size="11">
    <rect x="0" y="528" width="920" height="32" fill="#f3f6f3"/>
    <rect x="12" y="528" width="120" height="32" fill="#fff"/><text x="30" y="549" fill="#185c38" font-weight="700">FACTURACIONES</text>
    <text x="156" y="549" fill="#5b6b60">Pendientes</text>
    <text x="240" y="549" fill="#5b6b60">Cobradas</text>
  </g>

  <!-- HOJA FACTURACIONES (izquierda) -->
  <text x="16" y="84" fill="#185c38" font-size="13" font-weight="800">Hoja FACTURACIONES</text>
  <!-- encabezado tabla -->
  <g font-size="10.5">
    <rect x="16" y="92" width="540" height="24" fill="#217346"/>
    <text x="26" y="108" fill="#fff">Fecha</text>
    <text x="96" y="108" fill="#fff">B/L</text>
    <text x="196" y="108" fill="#fff">N° Factura</text>
    <text x="286" y="108" fill="#fff">Importe</text>
    <text x="372" y="108" fill="#fff">Días Venc.</text>
    <text x="452" y="108" fill="#fff">Estado</text>
  </g>
  <g font-size="10.5" fill="#23332a">
    <!-- filas -->
    <rect x="16" y="116" width="540" height="22" fill="#ffffff"/>
    <rect x="16" y="138" width="540" height="22" fill="#f3f8f4"/>
    <rect x="16" y="160" width="540" height="22" fill="#ffffff"/>
    <rect x="16" y="182" width="540" height="22" fill="#f3f8f4"/>
    <rect x="16" y="204" width="540" height="22" fill="#ffffff"/>
    <rect x="16" y="226" width="540" height="22" fill="#f3f8f4"/>
    <g>
      <text x="26" y="131">10/01</text><text x="96" y="131">S329600101</text><text x="196" y="131">FT 26-001</text><text x="286" y="131">1.850,00</text><text x="392" y="131" text-anchor="middle">75</text>
      <text x="26" y="153">02/02</text><text x="96" y="153">S329600102</text><text x="196" y="153">FT 26-018</text><text x="286" y="153">920,50</text><text x="392" y="153" text-anchor="middle">42</text>
      <text x="26" y="175">20/02</text><text x="96" y="175">S329600103</text><text x="196" y="175">FT 26-031</text><text x="286" y="175">3.120,00</text><text x="392" y="175" text-anchor="middle">24</text>
      <text x="26" y="197">05/03</text><text x="96" y="197">S329600104</text><text x="196" y="197">FT 26-047</text><text x="286" y="197">640,00</text><text x="392" y="197" text-anchor="middle">10</text>
      <text x="26" y="219">15/01</text><text x="96" y="219">S329600105</text><text x="196" y="219">FT 26-006</text><text x="286" y="219">1.500,00</text><text x="392" y="219" text-anchor="middle">0</text>
      <text x="26" y="241">12/12</text><text x="96" y="241">S329600106</text><text x="196" y="241">FT 25-540</text><text x="286" y="241">2.200,00</text><text x="392" y="241" text-anchor="middle">0</text>
    </g>
    <!-- chips estado -->
    <g font-size="9">
      <rect x="446" y="121" width="74" height="13" rx="6" fill="#fde0e0"/><text x="483" y="131" fill="#b42318" text-anchor="middle">PENDIENTE</text>
      <rect x="446" y="143" width="74" height="13" rx="6" fill="#fde0e0"/><text x="483" y="153" fill="#b42318" text-anchor="middle">PENDIENTE</text>
      <rect x="446" y="165" width="74" height="13" rx="6" fill="#fff3d6"/><text x="483" y="175" fill="#a36a00" text-anchor="middle">PENDIENTE</text>
      <rect x="446" y="187" width="74" height="13" rx="6" fill="#fff3d6"/><text x="483" y="197" fill="#a36a00" text-anchor="middle">PENDIENTE</text>
      <rect x="446" y="209" width="74" height="13" rx="6" fill="#dff3e4"/><text x="483" y="219" fill="#1e7a43" text-anchor="middle">COBRADO</text>
      <rect x="446" y="231" width="74" height="13" rx="6" fill="#dff3e4"/><text x="483" y="241" fill="#1e7a43" text-anchor="middle">COBRADO</text>
    </g>
  </g>
  <text x="16" y="266" fill="#7a8a7f" font-size="9.5" font-style="italic">Al editar una fila, el macro Worksheet_Change recalcula el resumen automáticamente ↓</text>

  <!-- HOJA Pendientes / resumen aging (derecha) -->
  <text x="588" y="84" fill="#185c38" font-size="13" font-weight="800">Resumen de deuda (aging)</text>
  <g>
    <rect x="588" y="92" width="150" height="58" rx="8" fill="#fff" stroke="#d6e3da"/>
    <text x="604" y="114" fill="#5b6b60" font-size="11">Total Pendiente</text>
    <text x="604" y="140" fill="#185c38" font-size="20" font-weight="800">6.530,50</text>
    <rect x="748" y="92" width="150" height="58" rx="8" fill="#fff" stroke="#d6e3da"/>
    <text x="764" y="114" fill="#5b6b60" font-size="11">Total Vencido</text>
    <text x="764" y="140" fill="#b42318" font-size="20" font-weight="800">6.530,50</text>
  </g>
  <!-- gráfico de aging -->
  <rect x="588" y="166" width="310" height="232" rx="8" fill="#fff" stroke="#d6e3da"/>
  <text x="604" y="188" fill="#334155" font-size="12" font-weight="700">Deuda vencida por tramo</text>
  <line x1="624" y1="360" x2="880" y2="360" stroke="#e2e8e4"/>
  <!-- barras: 0-30=640, 31-60=920.5, 61-90=3120, +90=1850 (escala) -->
  <rect x="636" y="332" width="44" height="28" rx="3" fill="url(#agbar)"/>
  <rect x="700" y="318" width="44" height="42" rx="3" fill="url(#agbar)"/>
  <rect x="764" y="220" width="44" height="140" rx="3" fill="url(#agbar)"/>
  <rect x="828" y="278" width="44" height="82" rx="3" fill="#b42318"/>
  <g font-size="9.5" fill="#5b6b60" text-anchor="middle">
    <text x="658" y="374">0-30</text><text x="722" y="374">31-60</text><text x="786" y="374">61-90</text><text x="850" y="374">+90</text>
  </g>
  <g font-size="9.5" fill="#23332a" text-anchor="middle" font-weight="700">
    <text x="658" y="326">640</text><text x="722" y="312">920</text><text x="786" y="214">3.120</text><text x="850" y="272">1.850</text>
  </g>
  <text x="604" y="392" fill="#7a8a7f" font-size="9.5">Se reporta a la casa matriz · datos de ejemplo sintéticos</text>
</svg>
